<mxfile host="app.diagrams.net" agent="Mozilla/5.0 (Windows NT 10.0; Win64; x64) AppleWebKit/537.36 (KHTML, like Gecko) Chrome/131.0.0.0 Safari/537.36" version="24.8.6">
  <diagram id="C5RBs43oDa-KdzZeNtuy" name="Page-1">
    <mxGraphModel dx="2261" dy="1941" grid="1" gridSize="10" guides="1" tooltips="1" connect="1" arrows="1" fold="1" page="1" pageScale="1" pageWidth="827" pageHeight="1169" math="0" shadow="0">
      <root>
        <mxCell id="WIyWlLk6GJQsqaUBKTNV-0" />
        <mxCell id="WIyWlLk6GJQsqaUBKTNV-1" parent="WIyWlLk6GJQsqaUBKTNV-0" />
        <mxCell id="WIyWlLk6GJQsqaUBKTNV-2" value="" style="rounded=0;html=1;jettySize=auto;orthogonalLoop=1;fontSize=11;endArrow=block;endFill=0;endSize=8;strokeWidth=1;shadow=0;labelBackgroundColor=none;edgeStyle=orthogonalEdgeStyle;" parent="WIyWlLk6GJQsqaUBKTNV-1" source="WIyWlLk6GJQsqaUBKTNV-3" target="WIyWlLk6GJQsqaUBKTNV-6" edge="1">
          <mxGeometry relative="1" as="geometry" />
        </mxCell>
        <mxCell id="WIyWlLk6GJQsqaUBKTNV-3" value="Player starts game" style="rounded=1;whiteSpace=wrap;html=1;fontSize=12;glass=0;strokeWidth=1;shadow=0;" parent="WIyWlLk6GJQsqaUBKTNV-1" vertex="1">
          <mxGeometry x="160" y="80" width="120" height="40" as="geometry" />
        </mxCell>
        <mxCell id="WIyWlLk6GJQsqaUBKTNV-5" value="Press store button" style="edgeStyle=orthogonalEdgeStyle;rounded=0;html=1;jettySize=auto;orthogonalLoop=1;fontSize=11;endArrow=block;endFill=0;endSize=8;strokeWidth=1;shadow=0;labelBackgroundColor=none;" parent="WIyWlLk6GJQsqaUBKTNV-1" source="WIyWlLk6GJQsqaUBKTNV-6" target="WIyWlLk6GJQsqaUBKTNV-7" edge="1">
          <mxGeometry y="10" relative="1" as="geometry">
            <mxPoint as="offset" />
          </mxGeometry>
        </mxCell>
        <mxCell id="TIEl4N58fSfIPEQDUaly-12" style="edgeStyle=orthogonalEdgeStyle;rounded=0;orthogonalLoop=1;jettySize=auto;html=1;exitX=0;exitY=0.5;exitDx=0;exitDy=0;labelPosition=center;verticalLabelPosition=middle;align=center;verticalAlign=middle;" edge="1" parent="WIyWlLk6GJQsqaUBKTNV-1" source="WIyWlLk6GJQsqaUBKTNV-6" target="TIEl4N58fSfIPEQDUaly-1">
          <mxGeometry relative="1" as="geometry" />
        </mxCell>
        <mxCell id="WIyWlLk6GJQsqaUBKTNV-6" value="Main menu screen" style="rhombus;whiteSpace=wrap;html=1;shadow=0;fontFamily=Helvetica;fontSize=12;align=center;strokeWidth=1;spacing=6;spacingTop=-4;" parent="WIyWlLk6GJQsqaUBKTNV-1" vertex="1">
          <mxGeometry x="170" y="170" width="100" height="80" as="geometry" />
        </mxCell>
        <mxCell id="WIyWlLk6GJQsqaUBKTNV-7" value="Store page" style="rounded=1;whiteSpace=wrap;html=1;fontSize=12;glass=0;strokeWidth=1;shadow=0;" parent="WIyWlLk6GJQsqaUBKTNV-1" vertex="1">
          <mxGeometry x="707" y="190" width="120" height="40" as="geometry" />
        </mxCell>
        <mxCell id="WIyWlLk6GJQsqaUBKTNV-12" value="Starts matchmaking" style="rounded=1;whiteSpace=wrap;html=1;fontSize=12;glass=0;strokeWidth=1;shadow=0;" parent="WIyWlLk6GJQsqaUBKTNV-1" vertex="1">
          <mxGeometry x="160" y="360" width="120" height="40" as="geometry" />
        </mxCell>
        <mxCell id="TIEl4N58fSfIPEQDUaly-1" value="Friends page" style="rounded=1;whiteSpace=wrap;html=1;" vertex="1" parent="WIyWlLk6GJQsqaUBKTNV-1">
          <mxGeometry x="-240" y="190" width="120" height="40" as="geometry" />
        </mxCell>
        <mxCell id="TIEl4N58fSfIPEQDUaly-13" value="Press friends button" style="text;strokeColor=none;align=center;fillColor=none;html=1;verticalAlign=middle;whiteSpace=wrap;rounded=0;" vertex="1" parent="WIyWlLk6GJQsqaUBKTNV-1">
          <mxGeometry x="40" y="190" width="110" height="30" as="geometry" />
        </mxCell>
        <mxCell id="TIEl4N58fSfIPEQDUaly-14" value="" style="endArrow=classic;html=1;rounded=0;entryX=0.5;entryY=0;entryDx=0;entryDy=0;exitX=0.5;exitY=1;exitDx=0;exitDy=0;" edge="1" parent="WIyWlLk6GJQsqaUBKTNV-1" source="WIyWlLk6GJQsqaUBKTNV-6" target="WIyWlLk6GJQsqaUBKTNV-12">
          <mxGeometry relative="1" as="geometry">
            <mxPoint x="230" y="290" as="sourcePoint" />
            <mxPoint x="330" y="290" as="targetPoint" />
          </mxGeometry>
        </mxCell>
        <mxCell id="TIEl4N58fSfIPEQDUaly-15" value="Press ready button" style="edgeLabel;resizable=0;html=1;;align=center;verticalAlign=middle;" connectable="0" vertex="1" parent="TIEl4N58fSfIPEQDUaly-14">
          <mxGeometry relative="1" as="geometry" />
        </mxCell>
        <mxCell id="TIEl4N58fSfIPEQDUaly-21" value="" style="endArrow=classic;html=1;rounded=0;exitX=0.5;exitY=1;exitDx=0;exitDy=0;entryX=0.5;entryY=0;entryDx=0;entryDy=0;" edge="1" parent="WIyWlLk6GJQsqaUBKTNV-1" source="WIyWlLk6GJQsqaUBKTNV-12" target="TIEl4N58fSfIPEQDUaly-23">
          <mxGeometry relative="1" as="geometry">
            <mxPoint x="185" y="390" as="sourcePoint" />
            <mxPoint x="220" y="500" as="targetPoint" />
          </mxGeometry>
        </mxCell>
        <mxCell id="TIEl4N58fSfIPEQDUaly-22" value="Match found" style="edgeLabel;resizable=0;html=1;;align=center;verticalAlign=middle;" connectable="0" vertex="1" parent="TIEl4N58fSfIPEQDUaly-21">
          <mxGeometry relative="1" as="geometry" />
        </mxCell>
        <mxCell id="TIEl4N58fSfIPEQDUaly-23" value="Opens playing screen" style="rounded=1;whiteSpace=wrap;html=1;" vertex="1" parent="WIyWlLk6GJQsqaUBKTNV-1">
          <mxGeometry x="160" y="490" width="120" height="40" as="geometry" />
        </mxCell>
        <mxCell id="TIEl4N58fSfIPEQDUaly-24" value="Opens mode selector" style="rounded=1;whiteSpace=wrap;html=1;fontSize=12;glass=0;strokeWidth=1;shadow=0;" vertex="1" parent="WIyWlLk6GJQsqaUBKTNV-1">
          <mxGeometry x="-80" y="330" width="120" height="40" as="geometry" />
        </mxCell>
        <mxCell id="TIEl4N58fSfIPEQDUaly-25" value="" style="endArrow=classic;html=1;rounded=0;exitX=0;exitY=1;exitDx=0;exitDy=0;entryX=1;entryY=0;entryDx=0;entryDy=0;" edge="1" parent="WIyWlLk6GJQsqaUBKTNV-1" source="WIyWlLk6GJQsqaUBKTNV-6" target="TIEl4N58fSfIPEQDUaly-24">
          <mxGeometry relative="1" as="geometry">
            <mxPoint x="45" y="270" as="sourcePoint" />
            <mxPoint x="145" y="270" as="targetPoint" />
          </mxGeometry>
        </mxCell>
        <mxCell id="TIEl4N58fSfIPEQDUaly-26" value="Press mode button next to ready" style="edgeLabel;resizable=0;html=1;;align=center;verticalAlign=middle;" connectable="0" vertex="1" parent="TIEl4N58fSfIPEQDUaly-25">
          <mxGeometry relative="1" as="geometry" />
        </mxCell>
        <mxCell id="TIEl4N58fSfIPEQDUaly-27" value="Shows &#39;You lost!&#39; screen and back to menu button" style="rounded=1;whiteSpace=wrap;html=1;" vertex="1" parent="WIyWlLk6GJQsqaUBKTNV-1">
          <mxGeometry x="250" y="620" width="120" height="50" as="geometry" />
        </mxCell>
        <mxCell id="TIEl4N58fSfIPEQDUaly-28" value="Shows &#39;Winner!&#39; screen, awards player with coins, and back to menu button" style="rounded=1;whiteSpace=wrap;html=1;" vertex="1" parent="WIyWlLk6GJQsqaUBKTNV-1">
          <mxGeometry x="-80" y="612.5" width="120" height="65" as="geometry" />
        </mxCell>
        <mxCell id="TIEl4N58fSfIPEQDUaly-29" value="" style="endArrow=classic;html=1;rounded=0;exitX=0;exitY=1;exitDx=0;exitDy=0;entryX=1;entryY=0;entryDx=0;entryDy=0;" edge="1" parent="WIyWlLk6GJQsqaUBKTNV-1" source="TIEl4N58fSfIPEQDUaly-23" target="TIEl4N58fSfIPEQDUaly-28">
          <mxGeometry relative="1" as="geometry">
            <mxPoint x="120" y="565" as="sourcePoint" />
            <mxPoint x="220" y="565" as="targetPoint" />
          </mxGeometry>
        </mxCell>
        <mxCell id="TIEl4N58fSfIPEQDUaly-30" value="Player wins" style="edgeLabel;resizable=0;html=1;;align=center;verticalAlign=middle;" connectable="0" vertex="1" parent="TIEl4N58fSfIPEQDUaly-29">
          <mxGeometry relative="1" as="geometry" />
        </mxCell>
        <mxCell id="TIEl4N58fSfIPEQDUaly-31" value="" style="endArrow=classic;html=1;rounded=0;exitX=1;exitY=1;exitDx=0;exitDy=0;" edge="1" parent="WIyWlLk6GJQsqaUBKTNV-1" source="TIEl4N58fSfIPEQDUaly-23">
          <mxGeometry relative="1" as="geometry">
            <mxPoint x="314" y="530" as="sourcePoint" />
            <mxPoint x="500" y="530" as="targetPoint" />
          </mxGeometry>
        </mxCell>
        <mxCell id="TIEl4N58fSfIPEQDUaly-32" value="Player Loses" style="edgeLabel;resizable=0;html=1;;align=center;verticalAlign=middle;" connectable="0" vertex="1" parent="TIEl4N58fSfIPEQDUaly-31">
          <mxGeometry relative="1" as="geometry" />
        </mxCell>
        <mxCell id="TIEl4N58fSfIPEQDUaly-33" value="Opens dropdown with settings, login/logout button, and quit game button" style="rounded=1;whiteSpace=wrap;html=1;" vertex="1" parent="WIyWlLk6GJQsqaUBKTNV-1">
          <mxGeometry x="-120" y="40" width="120" height="60" as="geometry" />
        </mxCell>
        <mxCell id="TIEl4N58fSfIPEQDUaly-34" value="" style="endArrow=classic;html=1;rounded=0;exitX=0;exitY=0;exitDx=0;exitDy=0;entryX=1;entryY=1;entryDx=0;entryDy=0;" edge="1" parent="WIyWlLk6GJQsqaUBKTNV-1" source="WIyWlLk6GJQsqaUBKTNV-6" target="TIEl4N58fSfIPEQDUaly-33">
          <mxGeometry relative="1" as="geometry">
            <mxPoint x="90" y="150" as="sourcePoint" />
            <mxPoint x="190" y="150" as="targetPoint" />
          </mxGeometry>
        </mxCell>
        <mxCell id="TIEl4N58fSfIPEQDUaly-35" value="Press menu button in top left" style="edgeLabel;resizable=0;html=1;;align=center;verticalAlign=middle;" connectable="0" vertex="1" parent="TIEl4N58fSfIPEQDUaly-34">
          <mxGeometry relative="1" as="geometry">
            <mxPoint x="-18" as="offset" />
          </mxGeometry>
        </mxCell>
        <mxCell id="TIEl4N58fSfIPEQDUaly-37" value="Opens coin buying menu with real currency" style="rounded=1;whiteSpace=wrap;html=1;" vertex="1" parent="WIyWlLk6GJQsqaUBKTNV-1">
          <mxGeometry x="430" y="40" width="120" height="40" as="geometry" />
        </mxCell>
        <mxCell id="TIEl4N58fSfIPEQDUaly-38" value="" style="endArrow=classic;html=1;rounded=0;exitX=1;exitY=0;exitDx=0;exitDy=0;entryX=0;entryY=1;entryDx=0;entryDy=0;" edge="1" parent="WIyWlLk6GJQsqaUBKTNV-1" source="WIyWlLk6GJQsqaUBKTNV-6" target="TIEl4N58fSfIPEQDUaly-37">
          <mxGeometry relative="1" as="geometry">
            <mxPoint x="300" y="150" as="sourcePoint" />
            <mxPoint x="400" y="150" as="targetPoint" />
          </mxGeometry>
        </mxCell>
        <mxCell id="TIEl4N58fSfIPEQDUaly-39" value="Press coins button in top right" style="edgeLabel;resizable=0;html=1;;align=center;verticalAlign=middle;" connectable="0" vertex="1" parent="TIEl4N58fSfIPEQDUaly-38">
          <mxGeometry relative="1" as="geometry" />
        </mxCell>
        <mxCell id="TIEl4N58fSfIPEQDUaly-40" value="Confirmation pop up" style="rounded=1;whiteSpace=wrap;html=1;fontSize=12;glass=0;strokeWidth=1;shadow=0;" vertex="1" parent="WIyWlLk6GJQsqaUBKTNV-1">
          <mxGeometry x="707" y="340" width="120" height="40" as="geometry" />
        </mxCell>
        <mxCell id="TIEl4N58fSfIPEQDUaly-41" value="" style="endArrow=classic;html=1;rounded=0;exitX=0.5;exitY=1;exitDx=0;exitDy=0;entryX=0.5;entryY=0;entryDx=0;entryDy=0;" edge="1" parent="WIyWlLk6GJQsqaUBKTNV-1" source="WIyWlLk6GJQsqaUBKTNV-7" target="TIEl4N58fSfIPEQDUaly-40">
          <mxGeometry relative="1" as="geometry">
            <mxPoint x="520" y="290" as="sourcePoint" />
            <mxPoint x="520" y="330" as="targetPoint" />
          </mxGeometry>
        </mxCell>
        <mxCell id="TIEl4N58fSfIPEQDUaly-42" value="Press buy under an item" style="edgeLabel;resizable=0;html=1;;align=center;verticalAlign=middle;" connectable="0" vertex="1" parent="TIEl4N58fSfIPEQDUaly-41">
          <mxGeometry relative="1" as="geometry" />
        </mxCell>
        <mxCell id="TIEl4N58fSfIPEQDUaly-43" value="" style="endArrow=classic;html=1;rounded=0;exitX=1;exitY=0.5;exitDx=0;exitDy=0;entryX=0;entryY=0.5;entryDx=0;entryDy=0;" edge="1" parent="WIyWlLk6GJQsqaUBKTNV-1" source="TIEl4N58fSfIPEQDUaly-40" target="TIEl4N58fSfIPEQDUaly-45">
          <mxGeometry relative="1" as="geometry">
            <mxPoint x="630" y="359.5" as="sourcePoint" />
            <mxPoint x="860" y="360" as="targetPoint" />
          </mxGeometry>
        </mxCell>
        <mxCell id="TIEl4N58fSfIPEQDUaly-44" value="Presses confirm with enough coins" style="edgeLabel;resizable=0;html=1;;align=center;verticalAlign=middle;" connectable="0" vertex="1" parent="TIEl4N58fSfIPEQDUaly-43">
          <mxGeometry relative="1" as="geometry">
            <mxPoint y="-10" as="offset" />
          </mxGeometry>
        </mxCell>
        <mxCell id="TIEl4N58fSfIPEQDUaly-45" value="Item purchased and added to inventory" style="rounded=1;whiteSpace=wrap;html=1;fontSize=12;glass=0;strokeWidth=1;shadow=0;" vertex="1" parent="WIyWlLk6GJQsqaUBKTNV-1">
          <mxGeometry x="1020" y="340" width="120" height="40" as="geometry" />
        </mxCell>
        <mxCell id="TIEl4N58fSfIPEQDUaly-46" value="Purchase canceled and &#39;Insufficient coins&#39; displayed" style="rounded=1;whiteSpace=wrap;html=1;fontSize=12;glass=0;strokeWidth=1;shadow=0;" vertex="1" parent="WIyWlLk6GJQsqaUBKTNV-1">
          <mxGeometry x="380" y="340" width="120" height="40" as="geometry" />
        </mxCell>
        <mxCell id="TIEl4N58fSfIPEQDUaly-47" value="" style="endArrow=classic;html=1;rounded=0;exitX=0;exitY=0.5;exitDx=0;exitDy=0;entryX=1;entryY=0.5;entryDx=0;entryDy=0;" edge="1" parent="WIyWlLk6GJQsqaUBKTNV-1" source="TIEl4N58fSfIPEQDUaly-40" target="TIEl4N58fSfIPEQDUaly-46">
          <mxGeometry relative="1" as="geometry">
            <mxPoint x="440" y="370" as="sourcePoint" />
            <mxPoint x="540" y="370" as="targetPoint" />
          </mxGeometry>
        </mxCell>
        <mxCell id="TIEl4N58fSfIPEQDUaly-48" value="Presses confirm with not enough coins" style="edgeLabel;resizable=0;html=1;;align=center;verticalAlign=middle;" connectable="0" vertex="1" parent="TIEl4N58fSfIPEQDUaly-47">
          <mxGeometry relative="1" as="geometry">
            <mxPoint y="-10" as="offset" />
          </mxGeometry>
        </mxCell>
        <mxCell id="TIEl4N58fSfIPEQDUaly-50" value="Opens invite menu with mode selector" style="rounded=1;whiteSpace=wrap;html=1;" vertex="1" parent="WIyWlLk6GJQsqaUBKTNV-1">
          <mxGeometry x="-560" y="190" width="120" height="40" as="geometry" />
        </mxCell>
        <mxCell id="TIEl4N58fSfIPEQDUaly-51" value="" style="endArrow=classic;html=1;rounded=0;exitX=0;exitY=0.5;exitDx=0;exitDy=0;entryX=1;entryY=0.5;entryDx=0;entryDy=0;" edge="1" parent="WIyWlLk6GJQsqaUBKTNV-1" source="TIEl4N58fSfIPEQDUaly-1" target="TIEl4N58fSfIPEQDUaly-50">
          <mxGeometry relative="1" as="geometry">
            <mxPoint x="-330" y="220" as="sourcePoint" />
            <mxPoint x="-230" y="220" as="targetPoint" />
          </mxGeometry>
        </mxCell>
        <mxCell id="TIEl4N58fSfIPEQDUaly-52" value="Press invite next to online friend" style="edgeLabel;resizable=0;html=1;;align=center;verticalAlign=middle;" connectable="0" vertex="1" parent="TIEl4N58fSfIPEQDUaly-51">
          <mxGeometry relative="1" as="geometry">
            <mxPoint y="-10" as="offset" />
          </mxGeometry>
        </mxCell>
        <mxCell id="TIEl4N58fSfIPEQDUaly-53" value="Invite is sent to friend and they can accept or decline" style="rounded=1;whiteSpace=wrap;html=1;" vertex="1" parent="WIyWlLk6GJQsqaUBKTNV-1">
          <mxGeometry x="-560" y="350" width="120" height="40" as="geometry" />
        </mxCell>
        <mxCell id="TIEl4N58fSfIPEQDUaly-54" value="" style="endArrow=classic;html=1;rounded=0;exitX=0.5;exitY=1;exitDx=0;exitDy=0;entryX=0.5;entryY=0;entryDx=0;entryDy=0;" edge="1" parent="WIyWlLk6GJQsqaUBKTNV-1" source="TIEl4N58fSfIPEQDUaly-50" target="TIEl4N58fSfIPEQDUaly-53">
          <mxGeometry relative="1" as="geometry">
            <mxPoint x="-450" y="280" as="sourcePoint" />
            <mxPoint x="-350" y="280" as="targetPoint" />
          </mxGeometry>
        </mxCell>
        <mxCell id="TIEl4N58fSfIPEQDUaly-55" value="Chooses mode and invites friend" style="edgeLabel;resizable=0;html=1;;align=center;verticalAlign=middle;" connectable="0" vertex="1" parent="TIEl4N58fSfIPEQDUaly-54">
          <mxGeometry relative="1" as="geometry" />
        </mxCell>
        <mxCell id="TIEl4N58fSfIPEQDUaly-56" value="Opens add friend pop up with prompt to type username" style="rounded=1;whiteSpace=wrap;html=1;" vertex="1" parent="WIyWlLk6GJQsqaUBKTNV-1">
          <mxGeometry x="-240" y="350" width="120" height="40" as="geometry" />
        </mxCell>
        <mxCell id="TIEl4N58fSfIPEQDUaly-57" value="" style="endArrow=classic;html=1;rounded=0;exitX=0.5;exitY=1;exitDx=0;exitDy=0;entryX=0.5;entryY=0;entryDx=0;entryDy=0;" edge="1" parent="WIyWlLk6GJQsqaUBKTNV-1" source="TIEl4N58fSfIPEQDUaly-1" target="TIEl4N58fSfIPEQDUaly-56">
          <mxGeometry relative="1" as="geometry">
            <mxPoint x="-200" y="290" as="sourcePoint" />
            <mxPoint x="-100" y="290" as="targetPoint" />
          </mxGeometry>
        </mxCell>
        <mxCell id="TIEl4N58fSfIPEQDUaly-58" value="Press add friend button" style="edgeLabel;resizable=0;html=1;;align=center;verticalAlign=middle;" connectable="0" vertex="1" parent="TIEl4N58fSfIPEQDUaly-57">
          <mxGeometry relative="1" as="geometry" />
        </mxCell>
        <mxCell id="TIEl4N58fSfIPEQDUaly-59" value="Smooth animation into customization menu that displays all owned boards and cosmetics" style="rounded=1;whiteSpace=wrap;html=1;" vertex="1" parent="WIyWlLk6GJQsqaUBKTNV-1">
          <mxGeometry x="-80" y="-150" width="120" height="110" as="geometry" />
        </mxCell>
        <mxCell id="TIEl4N58fSfIPEQDUaly-62" value="" style="endArrow=classic;html=1;rounded=0;entryX=0.5;entryY=1;entryDx=0;entryDy=0;" edge="1" parent="WIyWlLk6GJQsqaUBKTNV-1" source="WIyWlLk6GJQsqaUBKTNV-6" target="TIEl4N58fSfIPEQDUaly-59">
          <mxGeometry relative="1" as="geometry">
            <mxPoint x="70" y="50" as="sourcePoint" />
            <mxPoint x="30" y="-20" as="targetPoint" />
          </mxGeometry>
        </mxCell>
        <mxCell id="TIEl4N58fSfIPEQDUaly-63" value="Press 2048 board in the middle" style="edgeLabel;resizable=0;html=1;;align=center;verticalAlign=middle;" connectable="0" vertex="1" parent="TIEl4N58fSfIPEQDUaly-62">
          <mxGeometry relative="1" as="geometry">
            <mxPoint y="-23" as="offset" />
          </mxGeometry>
        </mxCell>
        <mxCell id="TIEl4N58fSfIPEQDUaly-65" value="Shows &#39;You lost!&#39; screen with placement (Ex: 2nd Place) and back to menu button" style="rounded=1;whiteSpace=wrap;html=1;" vertex="1" parent="WIyWlLk6GJQsqaUBKTNV-1">
          <mxGeometry x="400" y="605" width="120" height="80" as="geometry" />
        </mxCell>
        <mxCell id="TIEl4N58fSfIPEQDUaly-67" value="" style="endArrow=classic;html=1;rounded=0;entryX=0.5;entryY=0;entryDx=0;entryDy=0;" edge="1" parent="WIyWlLk6GJQsqaUBKTNV-1" target="TIEl4N58fSfIPEQDUaly-27">
          <mxGeometry relative="1" as="geometry">
            <mxPoint x="310" y="530" as="sourcePoint" />
            <mxPoint x="310" y="590" as="targetPoint" />
          </mxGeometry>
        </mxCell>
        <mxCell id="TIEl4N58fSfIPEQDUaly-68" value="1v1 mode" style="edgeLabel;resizable=0;html=1;;align=center;verticalAlign=middle;" connectable="0" vertex="1" parent="TIEl4N58fSfIPEQDUaly-67">
          <mxGeometry relative="1" as="geometry" />
        </mxCell>
        <mxCell id="TIEl4N58fSfIPEQDUaly-70" value="" style="endArrow=classic;html=1;rounded=0;entryX=0.5;entryY=0;entryDx=0;entryDy=0;" edge="1" parent="WIyWlLk6GJQsqaUBKTNV-1" target="TIEl4N58fSfIPEQDUaly-65">
          <mxGeometry relative="1" as="geometry">
            <mxPoint x="460" y="530" as="sourcePoint" />
            <mxPoint x="524" y="565" as="targetPoint" />
          </mxGeometry>
        </mxCell>
        <mxCell id="TIEl4N58fSfIPEQDUaly-71" value="Mode with more than 2 people" style="edgeLabel;resizable=0;html=1;;align=center;verticalAlign=middle;" connectable="0" vertex="1" parent="TIEl4N58fSfIPEQDUaly-70">
          <mxGeometry relative="1" as="geometry" />
        </mxCell>
        <mxCell id="TIEl4N58fSfIPEQDUaly-72" value="" style="endArrow=classic;html=1;rounded=0;exitX=0.5;exitY=0;exitDx=0;exitDy=0;entryX=0.5;entryY=1;entryDx=0;entryDy=0;" edge="1" parent="WIyWlLk6GJQsqaUBKTNV-1" source="TIEl4N58fSfIPEQDUaly-37" target="TIEl4N58fSfIPEQDUaly-74">
          <mxGeometry relative="1" as="geometry">
            <mxPoint x="470" y="-20" as="sourcePoint" />
            <mxPoint x="490" y="-70" as="targetPoint" />
          </mxGeometry>
        </mxCell>
        <mxCell id="TIEl4N58fSfIPEQDUaly-73" value="Player buys coins with real currency" style="edgeLabel;resizable=0;html=1;;align=center;verticalAlign=middle;" connectable="0" vertex="1" parent="TIEl4N58fSfIPEQDUaly-72">
          <mxGeometry relative="1" as="geometry" />
        </mxCell>
        <mxCell id="TIEl4N58fSfIPEQDUaly-74" value="Purchased coin amount added to balance" style="rounded=1;whiteSpace=wrap;html=1;" vertex="1" parent="WIyWlLk6GJQsqaUBKTNV-1">
          <mxGeometry x="430" y="-120" width="120" height="45" as="geometry" />
        </mxCell>
        <mxCell id="TIEl4N58fSfIPEQDUaly-76" value="Event occurs and is announced to all players (Ex: Inverted controls, all players swap boards with each other, all block values halved, etc...)" style="rounded=1;whiteSpace=wrap;html=1;" vertex="1" parent="WIyWlLk6GJQsqaUBKTNV-1">
          <mxGeometry x="-150" y="453.75" width="120" height="112.5" as="geometry" />
        </mxCell>
        <mxCell id="TIEl4N58fSfIPEQDUaly-78" value="" style="endArrow=classic;html=1;rounded=0;exitX=0;exitY=0.5;exitDx=0;exitDy=0;entryX=1;entryY=0.5;entryDx=0;entryDy=0;" edge="1" parent="WIyWlLk6GJQsqaUBKTNV-1" source="TIEl4N58fSfIPEQDUaly-23" target="TIEl4N58fSfIPEQDUaly-76">
          <mxGeometry relative="1" as="geometry">
            <mxPoint y="530" as="sourcePoint" />
            <mxPoint x="100" y="530" as="targetPoint" />
          </mxGeometry>
        </mxCell>
        <mxCell id="TIEl4N58fSfIPEQDUaly-79" value="Event occurs randomly" style="edgeLabel;resizable=0;html=1;;align=center;verticalAlign=middle;" connectable="0" vertex="1" parent="TIEl4N58fSfIPEQDUaly-78">
          <mxGeometry relative="1" as="geometry">
            <mxPoint y="-10" as="offset" />
          </mxGeometry>
        </mxCell>
      </root>
    </mxGraphModel>
  </diagram>
</mxfile>
